# xmcd
#
# Track frame offsets:
#	150
#	24364
#	44301
#	62887
#	83869
#	107470
#	130361
#	153182
#	176686
#	200956
#	223470
#	244981
#	266938
#	291974
#	306687
#	326513
#
# Disc length: 4734 seconds
#
# Revision: 0
# Processed by: cddbd v1.5.1PL0 Copyright (c) Steve Scherf et al.
# Submitted via: EasyCDDAExtractor 8.0.2.1
#
DISCID=00127c10
DTITLE=Jodeci - Best Of Jodeci
DYEAR=2003
DGENRE=R&B
TTITLE0=Forever My Lady
TTITLE1=I'm Still Waiting
TTITLE2=You And I
TTITLE3=Come And Talk To Me
TTITLE4=Stay
TTITLE5=My Heart Belongs To You
TTITLE6=Cry For You
TTITLE7=Feenin'
TTITLE8=What About Us?
TTITLE9=Ride And Slide
TTITLE10=Alone
TTITLE11=Love You For Life
TTITLE12=All My Life
TTITLE13=Don't Rush
TTITLE14=You Bring Me Up
TTITLE15=Come And Talk To Me (Remix)
EXTD=
EXTT0=
EXTT1=
EXTT2=
EXTT3=
EXTT4=
EXTT5=
EXTT6=
EXTT7=
EXTT8=
EXTT9=
EXTT10=
EXTT11=
EXTT12=
EXTT13=
EXTT14=
EXTT15=
PLAYORDER=
